# xmcd
#
# Track frame offsets:
#	150
#	19070
#	34907
#	52505
#	69784
#	84423
#	100935
#	119547
#	131784
#	146788
#	165708
#	181545
#	199143
#	216422
#	231061
#	247573
#	266185
#	278422
#
# Disc length: 3912 seconds
#
# Revision: 1
# Processed by: cddbd v1.5.1PL0 Copyright (c) Steve Scherf et al.
# Submitted via: audiograbber 1.83.01
#
DISCID=f20f4612
DTITLE=varrious - PHMN0407
DYEAR=2004
DGENRE=
TTITLE0=Martina McBride - How Far
TTITLE1=Terri Clark - Girls Lie Too
TTITLE2=Rachel Proctor - Me And Emily
TTITLE3=Clint Black - Boogie Man, The
TTITLE4=Jeff Bates - I Wanna Make You Cry
TTITLE5=Emerson Drive - Last One Standing
TTITLE6=Brad Paisley and Alison Krauss - Whiskey Lullaby
TTITLE7=Craig Morgan - Look At Us
TTITLE8=Trent Willmon - Beer Man
TTITLE9=Martina McBride - How Far (vocal)
TTITLE10=Terri Clark - Girls Lie Too (vocal)
TTITLE11=Rachel Proctor - Me And Emily (vocal)
TTITLE12=Clint Black - Boogie Man, The (vocal)
TTITLE13=Jeff Bates - I Wanna Make You Cry (vocal)
TTITLE14=Emerson Drive - Last One Standing (vocal)
TTITLE15=Prad Paisley and Alison Krauss - Whiskey Lullaby (vocal)
TTITLE16=Craig Morgan - Look At Us (vocal)
TTITLE17=Trent Willmon - Beer Man (vocal)
EXTD=
EXTT0=
EXTT1=
EXTT2=
EXTT3=
EXTT4=
EXTT5=
EXTT6=
EXTT7=
EXTT8=
EXTT9=
EXTT10=
EXTT11=
EXTT12=
EXTT13=
EXTT14=
EXTT15=
EXTT16=
EXTT17=
PLAYORDER=
